<?xml version="1.0" standalone="no"?>
<!DOCTYPE svg PUBLIC "-//W3C//DTD SVG 20010904//EN"
 "http://www.w3.org/TR/2001/REC-SVG-20010904/DTD/svg10.dtd">
<svg version="1.0" xmlns="http://www.w3.org/2000/svg"
 width="300.000000pt" height="384.000000pt" viewBox="0 0 300.000000 384.000000"
 preserveAspectRatio="xMidYMid meet">
<metadata>
Created by potrace 1.10, written by Peter Selinger 2001-2011
</metadata>
<g transform="translate(0.000000,384.000000) scale(0.100000,-0.100000)"
fill="#000000" stroke="none">
<path d="M1449 3689 c-6 -12 -9 -30 -6 -40 3 -10 1 -19 -3 -19 -5 0 -11 -13
-15 -30 -5 -23 -12 -30 -30 -30 -18 0 -24 -7 -29 -35 -5 -24 -14 -39 -29 -44
-17 -7 -29 -28 -46 -81 -14 -40 -38 -88 -54 -107 -36 -41 -124 -109 -191 -147
-78 -45 -88 -59 -80 -115 5 -39 3 -49 -10 -54 -25 -10 -19 -49 13 -79 24 -24
28 -25 24 -8 -3 11 -11 25 -19 31 -16 14 -19 53 -3 43 6 -3 19 -27 30 -52 11
-24 22 -43 24 -40 3 3 -4 25 -15 49 -11 24 -20 51 -20 60 0 31 201 82 312 77
23 -1 37 -3 30 -6 -10 -3 -10 -7 -1 -18 6 -8 15 -29 19 -47 7 -27 8 -24 9 26
1 53 3 57 25 57 20 0 25 -6 28 -35 3 -30 -2 -41 -38 -81 -39 -42 -46 -46 -83
-42 -21 2 -37 0 -35 -4 3 -4 -5 -7 -18 -7 -25 1 -150 -23 -208 -41 -19 -5 -52
-10 -72 -10 -44 0 -58 -16 -30 -36 11 -7 23 -25 26 -40 4 -14 16 -39 28 -55
16 -21 22 -45 23 -93 2 -41 9 -75 19 -91 9 -14 13 -25 8 -25 -19 0 -50 48 -62
95 -17 66 -37 106 -64 127 l-21 18 29 0 c23 0 27 3 19 11 -9 9 -20 9 -42 -1
-37 -15 -37 -17 -7 -49 26 -28 76 -119 76 -137 0 -6 -13 -14 -29 -17 -46 -10
-149 -62 -241 -122 -47 -31 -99 -63 -117 -71 -17 -9 -48 -30 -68 -48 -32 -27
-38 -39 -42 -82 -6 -58 27 -151 48 -138 7 4 9 3 6 -3 -4 -6 0 -27 9 -48 8 -20
20 -62 25 -93 13 -67 54 -143 103 -191 38 -37 44 -51 22 -51 -8 0 -16 -15 -20
-38 -7 -47 -65 -162 -88 -176 -31 -19 -31 3 1 43 30 37 81 155 81 186 0 8 -6
15 -14 15 -7 0 -19 7 -26 15 -18 21 -30 9 -30 -29 0 -42 -34 -143 -61 -180
-14 -18 -16 -27 -8 -24 21 7 56 76 75 148 20 76 22 79 34 60 18 -29 -14 -118
-68 -190 -23 -30 -27 -46 -30 -130 -4 -83 5 -170 21 -220 4 -10 -36 -42 -129
-105 -164 -109 -253 -165 -264 -165 -48 0 58 -155 146 -215 l36 -25 79 155
c76 151 140 245 166 245 21 0 16 -15 -27 -81 -22 -34 -40 -69 -40 -77 0 -9 -6
-23 -14 -31 -21 -25 -27 -98 -9 -113 14 -11 15 -9 9 20 -5 19 -4 32 2 32 14 0
23 -41 13 -59 -6 -9 -4 -20 5 -29 20 -20 19 -63 -2 -55 -9 3 -14 13 -11 24 3
11 1 22 -4 25 -5 3 -9 -4 -9 -16 0 -12 -4 -18 -10 -15 -5 3 -10 3 -10 -2 0 -4
17 -15 39 -24 l38 -16 -9 45 c-9 50 -3 72 8 26 8 -36 44 -144 55 -166 5 -9 15
-23 23 -30 8 -8 26 -38 41 -67 14 -29 29 -50 32 -47 3 3 0 14 -7 23 -7 10 1 3
17 -14 16 -18 38 -33 49 -33 16 1 15 3 -6 15 -21 11 -150 208 -150 229 0 3 -9
25 -19 49 -61 136 -62 201 -5 316 l35 70 -21 40 c-34 68 -50 149 -50 258 0
123 14 139 18 20 3 -95 10 -139 22 -132 5 3 5 18 0 35 -5 16 -5 30 0 32 4 2 9
30 11 63 2 33 7 62 10 65 4 3 23 55 44 115 21 61 41 114 46 119 5 6 19 -2 34
-18 28 -30 31 -41 12 -53 -62 -39 -116 -180 -117 -301 0 -90 26 -189 45 -170
3 3 -1 23 -9 44 -20 55 -29 147 -13 141 7 -2 15 -23 18 -48 3 -24 7 -39 8 -34
1 6 9 -1 17 -15 8 -14 13 -17 10 -7 -5 17 -3 16 20 -2 40 -32 49 -25 12 8 -23
20 -38 47 -50 88 -22 72 -22 77 -2 164 17 76 40 92 62 44 10 -21 9 -30 -4 -50
-10 -16 -12 -25 -5 -25 6 0 11 -7 11 -15 0 -8 5 -15 10 -15 6 0 10 28 10 64 0
35 3 83 6 108 5 38 10 45 28 44 15 -1 20 -7 18 -21 -9 -51 -8 -145 1 -145 5 0
3 -7 -4 -16 -12 -14 -11 -16 5 -13 14 3 18 15 19 61 1 31 -1 51 -5 45 -12 -19
-9 52 2 74 29 52 55 -1 52 -103 -1 -33 2 -58 8 -58 5 0 10 8 11 18 1 31 6 57
13 81 6 16 5 21 -3 17 -7 -5 -11 5 -11 28 0 31 4 37 28 42 40 9 112 46 112 57
0 6 18 26 40 44 35 30 100 112 100 126 0 3 -9 7 -20 10 -30 8 -57 81 -63 172
-4 49 -14 99 -26 125 -13 28 -21 69 -22 110 l-2 65 -10 -63 c-9 -58 -8 -65 17
-113 26 -50 35 -114 17 -121 -15 -5 -18 -43 -3 -40 7 1 12 -11 13 -33 2 -49 2
-50 21 -69 13 -12 16 -29 14 -61 -4 -51 -22 -75 -57 -75 -5 0 -8 -4 -4 -9 3
-5 -6 -18 -20 -29 -16 -13 -23 -26 -19 -36 3 -9 1 -16 -5 -16 -6 0 -10 3 -10
8 1 4 1 15 0 25 -1 25 -17 13 -37 -28 -14 -31 -19 -33 -50 -28 -18 3 -47 0
-63 -7 -55 -23 -109 6 -177 96 l-24 31 19 39 c11 21 26 55 34 74 8 19 25 60
38 90 12 30 33 70 47 88 13 18 22 36 18 39 -3 3 -18 -16 -33 -42 -15 -26 -34
-53 -40 -60 -7 -8 -13 -18 -13 -23 0 -9 -68 -170 -77 -181 -5 -7 -32 31 -48
67 -8 19 -17 53 -19 75 -3 23 -12 64 -20 91 -14 42 -14 47 -1 42 20 -7 19 -1
-3 21 -10 10 -27 38 -36 63 -10 25 -24 52 -32 61 -13 15 -12 20 11 47 14 17
47 41 73 54 26 13 77 45 112 70 66 47 185 110 230 122 l25 7 -21 -18 c-11 -10
-19 -23 -17 -30 2 -6 -18 -19 -44 -29 -52 -19 -85 -41 -43 -29 41 12 83 36
109 61 24 25 51 32 51 14 0 -5 11 -12 24 -16 22 -5 24 -10 23 -60 -1 -46 -4
-53 -18 -49 -10 3 -21 0 -25 -6 -4 -7 -3 -9 4 -5 6 3 13 -2 17 -13 8 -27 35
-36 35 -11 0 28 21 70 36 70 7 0 16 4 19 10 4 6 -1 7 -11 3 -13 -5 -15 -3 -9
8 18 32 38 47 53 42 9 -4 13 -2 9 4 -4 6 2 18 13 28 12 10 20 13 20 7 0 -7 8
-12 18 -12 14 0 15 2 2 10 -26 16 56 42 136 42 71 0 109 -12 130 -41 18 -23
66 -20 87 6 25 31 89 46 162 39 81 -7 107 -16 101 -32 -6 -16 10 -19 19 -4 3
5 14 2 25 -7 15 -13 17 -19 7 -25 -8 -6 -4 -8 12 -6 17 2 28 -5 40 -27 9 -16
24 -41 34 -55 9 -13 17 -35 17 -48 0 -13 4 -21 9 -17 5 3 12 1 16 -5 3 -5 1
-10 -6 -10 -8 0 -8 -4 1 -15 19 -23 33 -6 16 19 -13 21 -13 25 2 40 16 17 16
17 -3 14 -17 -3 -20 4 -22 59 -3 57 -2 62 19 65 14 2 23 10 22 19 -1 15 3 14
33 -3 41 -25 55 -17 22 12 l-24 21 25 -7 c82 -21 340 -164 401 -221 30 -28 30
-44 1 -37 -24 6 -90 -35 -73 -46 8 -5 9 -10 3 -14 -6 -3 -36 21 -69 55 -32 33
-70 67 -85 75 -14 7 -32 19 -40 27 -7 7 -28 19 -45 26 -18 7 -33 17 -33 21 0
4 -6 7 -12 7 -7 -1 -39 5 -71 12 -31 8 -60 12 -63 9 -3 -3 -1 -21 5 -39 5 -19
10 -26 10 -16 1 9 6 17 12 17 8 0 7 5 -2 16 -21 25 33 8 140 -44 67 -33 115
-66 167 -115 l73 -68 26 17 c31 20 75 27 75 11 -1 -28 -29 -91 -45 -100 -13
-7 -14 -11 -5 -17 11 -7 10 -20 -4 -69 -9 -34 -15 -65 -12 -70 6 -9 -23 -103
-34 -111 -4 -3 -11 -13 -16 -23 -9 -15 -13 -12 -31 25 -35 71 -63 136 -63 146
0 5 -9 17 -20 27 -11 10 -20 15 -20 11 0 -10 43 -100 51 -106 3 -3 10 -21 14
-40 4 -19 16 -47 26 -62 11 -14 19 -32 19 -40 0 -19 -86 -116 -110 -123 -11
-4 -20 -13 -20 -21 0 -13 4 -13 29 0 16 9 42 27 59 41 43 36 128 198 141 269
6 32 15 64 20 70 12 15 31 87 21 81 -4 -3 1 14 12 37 22 46 36 121 22 116 -5
-2 -10 1 -10 6 -4 22 -97 102 -171 147 -103 63 -236 125 -285 134 -21 4 -38
11 -38 16 0 17 52 113 72 136 28 30 17 53 -24 52 -24 -1 -27 -3 -10 -6 21 -4
32 -23 12 -23 -15 0 -46 -68 -60 -132 -8 -35 -22 -66 -37 -79 -27 -27 -28 -24
-7 27 10 24 14 51 10 73 -5 36 25 121 44 121 4 0 6 9 3 20 -4 14 3 30 18 46
20 21 21 27 9 34 -20 13 -47 12 -55 0 -3 -5 1 -10 9 -10 22 0 20 -13 -4 -30
-30 -22 -54 -112 -46 -176 6 -54 -5 -104 -24 -104 -5 0 -10 16 -10 35 0 19 -7
55 -16 81 -22 66 -5 135 48 187 21 21 38 44 38 52 0 8 9 19 20 25 25 13 27 65
3 78 -12 7 -15 18 -10 46 3 21 3 44 0 52 -3 7 -44 37 -92 66 -179 107 -209
139 -250 262 -11 31 -26 55 -39 61 -11 5 -27 26 -35 47 -11 28 -20 36 -31 32
-12 -5 -19 2 -27 25 -6 17 -15 31 -19 31 -4 0 -6 9 -3 19 5 21 -12 61 -27 61
-5 0 -14 -9 -21 -21z m42 -97 c7 -20 5 -22 -22 -22 -17 0 -28 3 -26 8 2 4 7
15 10 25 9 23 28 18 38 -11z m59 -53 c15 -24 -4 -30 -91 -27 l-84 3 24 24 c20
20 30 23 83 19 37 -3 63 -10 68 -19z m48 -53 c10 -6 9 -11 -4 -20 -16 -12 -15
-14 9 -20 15 -3 27 -13 27 -21 0 -8 5 -15 11 -15 5 0 7 -5 4 -10 -4 -6 -11 -8
-16 -4 -15 9 -6 -20 11 -33 12 -10 6 -12 -32 -13 -27 0 -48 3 -48 8 0 13 38
41 46 34 4 -4 4 -1 0 6 -4 6 -2 12 4 12 6 0 8 5 5 10 -8 12 -26 13 -22 1 1 -5
-2 -9 -8 -9 -5 0 -9 4 -7 9 4 16 -14 10 -33 -11 -14 -16 -22 -17 -39 -8 -17 8
-19 8 -9 -3 14 -14 0 -39 -22 -39 -22 0 -36 25 -22 40 10 12 9 12 -6 1 -15
-12 -21 -11 -42 9 -14 13 -25 19 -25 13 0 -6 16 -21 35 -34 39 -27 44 -39 17
-39 -10 0 -32 16 -51 35 -41 44 -60 45 -52 1 1 -5 -5 -3 -14 4 -9 7 -12 16 -8
19 4 3 9 15 11 26 5 28 25 46 63 56 40 10 199 6 217 -5z m-238 -102 c0 -8 -8
-14 -17 -15 -12 0 -13 -2 -5 -6 7 -3 19 0 26 6 10 8 17 7 26 -4 11 -13 8 -15
-16 -15 -16 0 -39 -3 -52 -6 -29 -8 -21 19 11 34 12 6 16 11 9 11 -7 1 -10 6
-7 11 8 13 25 3 25 -16z m210 13 c0 -16 -36 -47 -55 -47 -22 0 -18 12 13 37
31 26 42 28 42 10z m35 -67 c49 -8 66 -16 93 -45 18 -19 48 -42 68 -51 19 -9
33 -19 30 -21 -2 -2 -30 0 -62 6 -97 17 -246 24 -338 16 -91 -7 -116 -20 -42
-20 25 0 42 3 40 7 -3 5 41 8 98 7 67 -1 94 -4 78 -9 -16 -5 -2 -7 40 -4 66 4
183 -11 210 -27 10 -6 1 -7 -25 -4 -25 3 -10 -4 38 -18 43 -14 86 -32 94 -40
15 -15 14 -15 -8 -10 -21 6 -23 5 -10 -10 7 -9 21 -17 31 -17 10 0 24 -7 31
-17 16 -18 11 -18 -91 10 -30 8 -82 18 -115 21 -51 4 -45 2 33 -14 102 -21
135 -30 130 -36 -2 -2 -31 3 -63 10 -94 22 -299 37 -420 32 -99 -5 -282 -26
-360 -42 -16 -4 -27 -3 -22 1 4 5 55 18 115 31 59 12 94 23 78 23 -15 1 -54
-5 -85 -13 -31 -8 -72 -17 -92 -20 -19 -4 -44 -13 -55 -22 -18 -14 -18 -15 6
-9 l25 6 -25 -15 c-29 -18 -66 -23 -40 -6 10 6 11 10 3 10 -22 0 -14 27 10 33
48 12 117 40 117 48 0 4 -4 11 -10 14 -5 3 -10 2 -10 -3 0 -11 -79 -36 -88
-28 -8 9 -3 11 73 39 39 14 61 26 50 27 -25 2 40 28 72 29 12 1 24 5 27 9 3 5
-9 6 -26 4 -23 -4 -29 -1 -26 9 3 8 13 16 24 18 21 4 54 34 54 50 0 39 209 63
345 41z m-121 -271 c8 -12 13 -26 12 -33 -2 -6 -1 -8 1 -3 8 13 23 8 23 -8 0
-8 6 -14 13 -12 6 1 11 -6 11 -15 -1 -11 4 -14 14 -11 12 5 14 1 9 -16 -4 -16
-2 -21 8 -17 15 5 41 -29 50 -67 5 -19 2 -26 -12 -30 -15 -4 41 -9 63 -6 4 0
11 -5 15 -13 7 -10 9 -10 9 0 0 6 5 12 10 12 6 0 10 -8 10 -17 0 -15 2 -14 15
3 8 10 15 14 15 7 0 -7 7 -10 16 -6 11 4 15 2 12 -7 -3 -9 -26 -15 -66 -18
-51 -3 -62 -1 -62 12 0 10 -6 13 -16 9 -9 -3 -11 -9 -6 -12 16 -10 6 -54 -14
-62 -18 -7 -18 -8 1 -8 11 0 29 6 39 14 11 8 14 15 8 15 -7 0 -12 5 -12 10 0
6 9 10 20 10 25 0 27 -32 4 -51 -12 -10 -15 -25 -11 -56 4 -41 3 -43 -22 -43
-31 0 -119 -26 -136 -40 -7 -6 -20 -8 -29 -4 -17 7 -22 34 -6 34 6 0 10 -6 10
-12 0 -10 3 -9 9 1 5 7 14 11 20 7 7 -5 9 -1 5 8 -7 19 7 21 24 4 7 -7 12 -8
12 -2 0 6 -5 15 -11 21 -7 7 -7 13 -1 17 6 4 18 -4 26 -16 12 -17 16 -19 16
-6 0 9 -7 18 -15 22 -8 3 -15 10 -15 17 0 18 24 4 37 -22 l13 -24 0 23 c0 12
-7 25 -15 28 -16 6 -21 39 -7 48 15 9 13 87 -3 135 -9 28 -32 63 -54 85 l-39
38 -31 -28 c-51 -45 -73 -103 -69 -180 3 -62 1 -67 -21 -75 -20 -8 -23 -7 -18
11 3 11 1 20 -4 20 -20 0 -7 20 14 21 21 1 19 2 -23 15 -12 4 -12 7 -1 13 9 6
10 11 2 15 -17 11 -13 26 7 27 10 0 12 3 5 6 -19 7 -16 23 5 24 10 0 12 3 5 6
-18 7 -16 33 2 33 8 0 14 6 13 13 -2 6 5 11 14 11 14 -1 17 3 11 24 -5 21 -3
24 11 19 10 -4 16 -1 16 8 0 8 5 15 10 15 6 0 10 5 10 11 0 6 7 17 15 25 8 9
15 21 15 27 0 7 -11 -1 -25 -18 -18 -22 -24 -25 -25 -13 -1 49 37 65 64 27z
m54 -6 l10 -28 1 28 c1 21 6 27 22 27 12 0 27 -7 34 -17 8 -11 18 -14 31 -8
17 7 17 8 -6 15 l-25 8 26 1 c34 1 52 -21 45 -56 -3 -15 -7 -45 -8 -65 -3 -57
-30 -49 -102 28 -77 84 -83 94 -57 94 12 0 23 -10 29 -27z m262 12 c51 -7 149
-35 167 -47 8 -7 4 -26 -15 -72 -21 -50 -30 -62 -45 -58 -10 3 -16 10 -13 18
3 8 9 22 12 32 5 15 4 15 -10 -2 -8 -10 -17 -23 -19 -29 -2 -7 -29 -6 -83 2
-122 19 -117 16 -110 69 4 26 7 59 8 75 1 25 4 27 32 23 17 -3 51 -8 76 -11z
m210 -88 c0 -8 -9 -22 -19 -31 -11 -10 -22 -28 -25 -42 -4 -13 -10 -24 -15
-24 -10 0 15 78 31 97 14 17 28 16 28 0z m-488 -54 c21 -19 23 -52 5 -77 -20
-27 -77 -18 -96 15 -13 24 -13 29 2 53 20 30 61 35 89 9z m-197 -40 c-9 -36
-6 -34 -67 -39 -29 -3 -60 -7 -68 -11 -27 -10 -55 -11 -68 0 -9 7 -11 6 -6 -7
8 -21 -8 -21 -53 0 -19 9 -31 20 -26 24 20 19 190 56 272 59 20 1 22 -2 16
-26z m538 3 c32 -7 61 -16 64 -20 8 -8 -12 -29 -29 -32 -7 -2 -24 -6 -38 -10
-21 -6 -23 -4 -12 7 23 25 12 30 -16 7 -16 -13 -25 -26 -19 -29 5 -4 -2 -15
-17 -24 -37 -25 -41 -14 -7 22 l28 31 -30 6 c-16 3 -53 6 -81 6 -49 0 -52 2
-63 31 l-12 32 87 -7 c48 -3 113 -12 145 -20z m-820 -65 c14 -17 30 -52 37
-79 9 -41 9 -57 -5 -101 -10 -28 -15 -62 -13 -76 8 -37 -9 -40 -27 -6 -11 23
-14 45 -9 87 5 39 4 55 -4 51 -6 -5 -8 0 -5 12 8 30 -16 90 -43 107 -29 20
-23 34 16 34 19 0 36 -10 53 -29z m238 1 c8 2 17 8 21 13 4 6 8 0 8 -11 0 -29
-22 -36 -84 -28 -49 7 -51 6 -34 -12 30 -34 14 -174 -21 -174 -3 0 -6 27 -7
60 -1 33 2 57 6 55 5 -3 6 4 3 15 -3 13 0 20 8 20 8 1 1 8 -16 17 -17 9 -25
18 -17 21 6 2 9 8 6 14 -4 6 1 8 15 3 14 -4 21 -2 21 7 0 10 3 9 10 -2 9 -13
11 -13 20 0 6 10 10 11 10 3 0 -20 20 -15 20 5 0 13 2 14 9 4 4 -7 14 -12 22
-10z m290 -2 c5 0 9 -4 9 -10 0 -12 -47 -13 -54 -1 -8 12 6 22 22 16 7 -3 18
-5 23 -5z m-43 -23 c15 -12 11 -92 -6 -124 -15 -27 -35 -31 -30 -5 2 9 9 16
15 15 6 -1 14 4 16 12 5 10 -2 12 -29 8 -20 -3 -40 -1 -49 7 -17 14 -20 71 -5
86 7 7 1 9 -20 6 -19 -3 -30 0 -30 8 0 14 117 4 138 -13z m352 -11 c-5 -15
-10 -38 -10 -52 0 -43 -20 -26 -21 19 -2 40 -2 40 -8 10 -5 -25 -9 -30 -21
-23 -22 14 -1 65 28 66 12 1 25 4 29 8 12 12 14 -1 3 -28z m-770 0 c0 -7 4 -6
9 3 7 10 12 8 25 -10 20 -29 20 -45 2 -52 -10 -4 -16 3 -19 21 -3 21 -4 19 -6
-10 -2 -50 -17 -56 -24 -10 -3 20 -9 47 -13 60 -5 18 -3 21 10 16 9 -3 16 -11
16 -18z m648 2 c-3 -7 -14 -17 -25 -23 -25 -11 -39 -66 -23 -94 14 -27 13 -31
-9 -31 -13 0 -21 9 -26 30 -7 33 1 70 16 70 5 0 9 6 9 14 0 15 36 46 53 46 5
0 7 -6 5 -12z m-508 -13 c7 -8 20 -15 29 -15 14 0 14 2 1 10 -12 8 -9 10 11
10 28 0 34 -13 46 -102 4 -33 2 -38 -16 -38 -17 0 -20 6 -18 38 1 20 5 39 9
42 3 3 -4 10 -16 16 -22 10 -22 10 -10 -15 15 -31 8 -77 -13 -86 -22 -8 -25
-2 -14 29 14 35 3 84 -19 91 -10 3 -24 12 -30 20 -10 12 -9 15 8 15 11 0 25
-7 32 -15z m544 -27 c-3 -13 -3 -20 1 -16 5 5 28 -12 52 -36 35 -35 43 -51 43
-80 0 -20 -3 -36 -8 -36 -15 0 -65 54 -54 58 17 5 15 22 -2 22 -8 0 -17 10
-19 23 -3 12 -3 3 -2 -21 3 -47 -11 -52 -32 -11 -17 32 -17 106 0 112 24 10
28 7 21 -15z m-48 -13 c-3 -13 0 -42 7 -64 13 -35 12 -39 -2 -33 -24 9 -31 23
-31 69 0 36 6 47 29 52 2 1 0 -10 -3 -24z m-498 -15 c6 -40 -8 -90 -25 -90
-10 0 -13 6 -9 16 3 9 6 36 6 61 0 47 22 58 28 13z m-103 -59 c0 -42 -4 -51
-32 -75 l-33 -28 0 41 c0 31 7 49 31 76 17 19 32 35 33 35 0 0 1 -22 1 -49z
m275 29 c0 -6 -6 -13 -14 -16 -14 -5 -16 -28 -3 -40 12 -12 56 18 60 40 3 19
4 19 11 4 5 -11 2 -23 -8 -33 -9 -9 -16 -20 -16 -24 0 -5 -22 -4 -50 2 -43 8
-50 13 -50 33 0 27 20 33 21 7 0 -14 2 -15 6 -3 12 33 43 54 43 30z m400 -93
c63 -30 130 -94 130 -123 0 -29 -16 -32 -25 -5 -10 33 -80 88 -139 110 -92 34
-196 26 -267 -22 l-34 -23 -33 22 c-118 80 -315 33 -404 -96 l-17 -25 0 28
c-1 34 61 96 128 129 67 33 173 36 260 8 l69 -22 58 21 c33 11 68 22 79 25 40
10 151 -5 195 -27z m-1257 -1456 c3 -14 -7 -30 -33 -53 -55 -50 -110 -126
-110 -154 0 -13 -4 -24 -10 -24 -5 0 -10 5 -10 10 0 6 -7 10 -15 10 -8 0 -15
-2 -15 -4 0 -2 -3 -13 -6 -23 -6 -16 -5 -16 9 2 18 22 22 6 8 -30 -5 -12 -4
-26 3 -34 9 -12 8 -13 -6 -9 -21 8 -33 -19 -17 -38 24 -29 -17 -14 -49 17 -18
17 -32 26 -32 20 0 -6 14 -20 30 -33 29 -21 39 -51 21 -63 -5 -3 -12 -1 -16 5
-4 6 -10 8 -14 6 -20 -13 -118 112 -127 160 -5 26 13 33 33 13 9 -9 11 -7 7 8
-4 13 0 22 10 26 10 4 13 1 9 -9 -3 -8 12 1 33 20 22 19 60 49 85 68 26 18 66
48 89 65 23 18 46 31 50 28 4 -2 15 4 25 15 23 25 41 25 48 1z"/>
<path d="M1253 3205 c0 -8 9 -15 19 -15 10 0 18 7 18 15 0 8 -8 15 -18 15 -10
0 -19 -7 -19 -15z"/>
<path d="M1356 3173 c-48 -11 -61 -11 -68 -1 -4 7 -8 8 -8 3 0 -6 -28 -17 -62
-24 -35 -8 -70 -18 -78 -23 -11 -7 -8 -8 10 -4 14 4 61 11 105 17 44 5 87 12
95 14 9 3 35 7 59 9 23 2 45 6 47 9 12 12 -47 12 -100 0z"/>
<path d="M1373 3131 c-39 -3 -74 -8 -76 -11 -3 -3 86 -5 198 -5 112 0 196 3
187 6 -27 10 -231 16 -309 10z"/>
<path d="M1595 2714 c9 -7 20 -25 25 -41 7 -25 8 -26 9 -5 1 13 5 31 10 41 8
15 5 17 -26 17 -29 0 -32 -2 -18 -12z"/>
<path d="M1754 2984 c1 -30 4 -54 8 -54 11 0 14 100 2 104 -6 2 -10 -16 -10
-50z"/>
<path d="M1717 2988 c-2 -7 -2 -21 1 -31 4 -15 7 -16 13 -5 12 17 11 48 0 48
-5 0 -11 -6 -14 -12z"/>
<path d="M470 1085 c-12 -13 -26 -22 -30 -20 -10 6 -90 -64 -90 -78 0 -5 8 0
19 11 10 12 23 22 29 22 5 0 12 7 16 15 3 8 9 14 14 13 4 -2 25 12 47 30 22
17 35 32 29 32 -6 0 -21 -11 -34 -25z"/>
<path d="M250 802 c0 -15 38 -44 43 -34 4 4 -3 16 -14 25 -21 19 -29 21 -29 9z"/>
<path d="M1187 3043 c-24 -4 -25 -6 -12 -19 8 -9 15 -33 15 -54 0 -21 5 -42
11 -45 6 -5 9 5 8 27 -5 65 0 88 19 88 29 0 41 -14 47 -54 2 -21 7 -41 10 -44
7 -7 6 39 -1 77 -7 33 -19 36 -97 24z"/>
<path d="M1119 3033 c-11 -3 -15 -11 -12 -24 7 -25 19 -24 26 3 7 26 7 25 -14
21z"/>
<path d="M935 2455 c-22 -8 -46 -13 -53 -10 -7 3 -10 0 -7 -5 3 -6 -3 -10 -14
-10 -10 0 -21 -3 -23 -7 -1 -5 -36 -30 -75 -56 -68 -46 -119 -94 -141 -133 -9
-15 -14 -16 -34 -6 -12 7 -15 10 -5 8 9 -3 17 -2 17 2 0 14 -45 36 -77 37 -34
2 -34 -5 -1 -60 19 -32 25 -27 8 6 -14 25 3 25 45 -1 l33 -20 49 53 c57 63
124 113 208 155 67 34 122 51 112 35 -4 -6 0 -16 8 -23 13 -11 15 -8 15 19 0
35 -7 37 -65 16z"/>
<path d="M2206 2449 c8 -13 104 -61 104 -52 0 5 -25 20 -55 35 -30 14 -53 22
-49 17z"/>
<path d="M755 2428 c-11 -7 -27 -12 -35 -13 -8 0 -17 -5 -19 -10 -2 -6 -11
-15 -20 -22 -9 -7 -12 -13 -8 -13 11 0 96 50 103 61 7 12 4 11 -21 -3z"/>
<path d="M1755 2404 c-27 -7 -53 -13 -56 -14 -13 -1 -69 -61 -84 -90 -21 -40
-29 -115 -21 -174 11 -68 21 -56 23 29 3 101 37 175 97 210 24 14 52 25 64 25
19 0 39 17 31 24 -2 2 -26 -2 -54 -10z"/>
<path d="M1159 2399 c-8 -4 2 -10 27 -14 119 -19 184 -109 184 -254 0 -40 3
-52 11 -44 6 6 11 42 12 79 1 106 -38 179 -113 212 -47 20 -106 31 -121 21z"/>
<path d="M1931 2315 c-1 -46 -8 -85 -21 -114 -14 -31 -20 -65 -20 -120 0 -60
-5 -87 -22 -121 -21 -41 -26 -45 -65 -48 -33 -2 -48 -10 -68 -34 -29 -34 -30
-64 -6 -157 7 -26 8 -48 3 -55 -5 -6 -10 -18 -11 -26 0 -8 -8 -60 -16 -115
-18 -118 -17 -277 1 -322 19 -47 41 -55 121 -42 37 6 76 10 86 10 21 0 69 -36
60 -45 -3 -3 6 -15 21 -27 20 -16 24 -24 16 -34 -6 -7 -19 -11 -30 -8 -10 3
-42 -3 -71 -12 -59 -20 -132 -65 -105 -65 10 0 15 -5 11 -12 -4 -7 0 -5 8 4 8
10 16 15 19 13 3 -3 11 1 18 10 7 8 23 15 36 15 12 0 26 5 29 10 4 6 14 10 23
9 10 -1 24 1 32 4 18 7 38 10 63 8 14 -1 9 -9 -22 -34 -132 -107 -159 -132
-153 -146 4 -11 7 -9 13 7 5 12 21 28 36 35 15 6 39 23 53 36 61 57 109 82
160 83 43 1 47 3 32 14 -9 8 -43 14 -74 14 -52 0 -58 2 -58 21 0 12 -8 27 -17
34 -15 12 -14 15 13 42 16 16 35 32 42 34 9 3 11 11 4 28 l-8 23 -32 -32 c-18
-17 -32 -36 -32 -41 0 -6 -12 -1 -27 11 -15 12 -38 20 -53 18 -34 -3 -35 1
-20 46 8 25 15 34 20 26 5 -7 10 5 12 31 3 24 4 45 3 46 0 1 -11 0 -23 -4 -18
-4 -20 -8 -11 -19 19 -24 3 -47 -28 -39 -26 6 -27 6 -10 -13 23 -25 22 -34 -9
-61 -17 -15 -29 -19 -33 -12 -5 7 -13 3 -24 -10 -34 -39 -35 -8 -1 49 50 83
74 169 74 266 0 81 -20 190 -37 207 -5 5 -2 -21 8 -58 22 -85 24 -181 4 -258
-18 -70 -74 -187 -93 -193 -7 -2 0 18 17 44 47 79 71 172 70 278 -1 50 -4 102
-8 116 -4 14 -5 -23 -3 -81 5 -118 -8 -180 -60 -282 -21 -42 -33 -56 -40 -49
-7 7 -4 21 11 45 13 21 19 42 14 53 -4 11 -3 15 4 11 10 -7 20 12 42 82 23 72
2 306 -32 349 -16 21 -17 9 -2 -41 35 -118 25 -288 -23 -382 -33 -64 -44 -35
-12 30 19 39 20 48 9 62 -10 12 -10 15 -1 9 9 -5 12 3 13 31 1 21 3 65 5 98 2
33 -3 95 -11 139 -8 43 -14 95 -14 115 l2 36 7 -40 7 -40 2 43 c1 42 27 82 54
82 6 0 23 -16 36 -35 60 -89 174 -161 271 -174 58 -7 66 -20 23 -40 -23 -10
-34 -25 -46 -65 -42 -134 -58 -248 -37 -261 6 -3 9 -14 9 -23 -1 -16 -2 -16
-6 0 -3 10 -10 15 -20 11 -12 -5 -14 -1 -8 17 5 15 4 20 -4 16 -6 -4 -11 0
-11 8 0 9 -4 16 -10 16 -5 0 -10 7 -10 16 0 8 4 13 10 9 5 -3 9 16 9 49 -1 30
2 59 6 65 3 6 1 11 -4 11 -10 0 -16 -41 -12 -82 1 -10 -3 -18 -8 -18 -6 0 -11
15 -11 33 0 17 -9 46 -19 64 -11 17 -19 45 -19 61 1 16 -3 35 -7 42 -6 9 -4
11 4 6 7 -5 16 -18 21 -30 7 -16 9 -17 9 -4 1 10 8 16 19 15 13 -1 19 -10 20
-31 3 -35 12 -49 12 -18 0 11 9 27 20 35 11 8 17 17 13 20 -3 4 3 7 15 7 12 0
22 3 22 8 0 4 -29 8 -64 9 -37 1 -78 9 -96 18 -39 20 -60 7 -30 -20 21 -19 27
-50 10 -60 -16 -10 -12 -23 10 -30 22 -7 27 -44 8 -63 -9 -9 -9 -12 1 -12 24
0 42 -30 51 -87 5 -31 14 -61 19 -66 6 -6 7 -22 4 -38 -4 -21 0 -30 16 -38 17
-10 21 -9 21 4 0 8 -5 15 -11 15 -8 0 -9 4 0 13 6 8 9 17 6 21 -3 3 1 2 7 -4
18 -15 25 -12 30 15 3 14 1 25 -3 25 -11 0 -4 76 14 163 15 70 54 138 94 164
13 9 23 18 23 22 0 10 -77 31 -114 31 -29 0 -40 6 -60 36 -18 26 -25 32 -28
19 -3 -14 -7 -13 -34 7 -23 17 -30 30 -28 48 1 14 0 19 -2 13 -7 -17 -29 -16
-43 1 -15 17 -17 106 -3 115 5 3 13 24 16 46 4 22 11 44 16 49 13 13 13 46 0
46 -17 0 -11 75 10 124 12 25 27 46 35 46 8 0 15 7 15 15 0 9 -6 12 -15 9 -11
-5 -15 1 -16 22 -1 16 -5 40 -9 54 -6 18 -8 6 -9 -45z"/>
<path d="M1443 2363 c26 -2 68 -2 95 0 26 2 4 3 -48 3 -52 0 -74 -1 -47 -3z"/>
<path d="M1857 2306 c-3 -7 -38 -26 -77 -41 -57 -22 -76 -34 -94 -64 -39 -61
-41 -79 -11 -87 31 -8 94 1 108 15 7 7 0 7 -24 1 -33 -10 -89 -5 -89 8 0 20
56 82 82 91 38 14 48 14 28 1 -13 -8 -13 -11 -1 -19 21 -14 5 -28 -31 -27 -40
1 -61 -13 -46 -31 16 -19 52 -15 83 9 22 17 26 27 22 53 -4 27 -1 34 19 44 19
8 24 8 24 -3 0 -22 -22 -80 -37 -98 -13 -15 -13 -16 6 -11 21 5 23 12 49 121
9 39 1 69 -11 38z"/>
<path d="M1726 2287 c-21 -12 -46 -33 -55 -47 -13 -20 -8 -18 27 12 24 20 60
41 80 46 30 8 32 10 12 11 -14 0 -43 -9 -64 -22z"/>
<path d="M1115 2253 c7 -27 16 -60 19 -74 8 -35 76 -71 136 -72 70 -1 75 6 44
64 -26 47 -84 89 -125 89 -8 0 -29 9 -47 20 -18 11 -34 20 -36 20 -2 0 2 -21
9 -47z m63 -34 c6 -54 13 -67 42 -79 25 -11 34 -10 56 5 22 14 28 15 35 4 16
-25 10 -29 -45 -29 -77 0 -110 29 -132 116 -6 22 -4 23 17 15 15 -5 25 -18 27
-32z m61 -3 c15 -8 32 -21 38 -28 9 -10 4 -13 -25 -13 -29 0 -38 4 -41 20 -2
11 -8 23 -15 27 -21 14 14 9 43 -6z"/>
<path d="M1195 2291 c45 -11 77 -30 102 -59 13 -15 23 -22 23 -16 0 32 -85 85
-132 83 -19 -1 -17 -2 7 -8z"/>
<path d="M2447 2236 c-4 -9 -13 -13 -21 -10 -11 4 -13 0 -9 -17 4 -15 3 -20
-5 -15 -8 5 -12 -1 -12 -14 0 -23 19 -23 30 1 4 8 12 25 19 37 7 13 10 26 8
28 -3 3 -7 -2 -10 -10z"/>
<path d="M2205 2225 c11 -7 41 -28 68 -47 36 -25 55 -48 77 -95 17 -35 32 -63
35 -63 5 0 -4 25 -22 60 -7 14 -13 30 -13 35 0 15 -67 77 -111 103 -40 24 -66
30 -34 7z"/>
<path d="M780 2222 c0 -5 -17 -18 -38 -29 -20 -12 -48 -34 -62 -49 -29 -31
-16 -25 58 29 45 34 64 57 47 57 -3 0 -5 -4 -5 -8z"/>
<path d="M1487 2220 c-3 -8 -8 -40 -10 -71 -6 -66 -33 -127 -49 -111 -8 8 -6
23 6 52 19 47 21 86 5 96 -8 4 -9 0 -4 -14 4 -13 -2 -40 -14 -68 -25 -56 -26
-83 -4 -91 10 -4 24 3 39 20 20 23 24 25 32 11 8 -15 10 -15 15 0 5 13 10 12
31 -9 26 -26 56 -25 56 1 0 8 -7 31 -16 52 -9 20 -20 53 -24 72 l-8 35 -1 -37
c0 -21 7 -53 16 -73 12 -26 14 -38 6 -46 -17 -17 -45 43 -59 126 -6 39 -14 63
-17 55z"/>
<path d="M557 2203 c-12 -11 -7 -50 7 -62 20 -17 28 2 12 25 -8 10 -12 24 -9
31 6 14 0 17 -10 6z"/>
<path d="M393 2073 c-14 -47 -19 -79 -13 -81 6 -2 10 -15 10 -28 0 -14 5 -34
11 -45 5 -11 9 -28 6 -37 -2 -13 -7 -9 -18 14 -8 18 -37 57 -66 88 l-52 57 -7
-38 c-5 -25 -3 -38 5 -41 6 -2 11 -15 11 -28 0 -14 9 -43 19 -65 11 -21 14
-36 8 -33 -14 7 20 -25 50 -46 27 -19 38 -65 20 -82 -8 -7 -12 -20 -9 -30 2
-10 2 -24 -1 -33 -5 -12 -12 -12 -46 4 -22 10 -54 32 -70 49 -31 32 -50 28
-32 -6 10 -19 67 -52 93 -53 7 0 23 -13 36 -30 l24 -29 -27 0 c-30 0 -66 17
-78 36 -12 20 -27 17 -27 -4 0 -24 35 -56 50 -47 15 9 72 -15 67 -29 -5 -15
-57 -20 -70 -7 -17 17 -31 13 -17 -4 18 -21 93 -19 139 4 23 12 48 18 62 14
13 -3 21 -2 16 2 -4 5 2 18 13 30 24 26 50 97 50 140 0 19 6 36 13 38 8 4 8 6
-2 6 -8 1 -23 8 -33 18 -10 9 -18 11 -18 6 0 -6 7 -13 15 -17 19 -7 20 -58 1
-99 -8 -18 -17 -40 -20 -50 -3 -10 -23 -25 -43 -34 -21 -8 -44 -24 -51 -34 -7
-10 -21 -19 -30 -19 -15 1 -15 2 2 15 11 8 14 15 8 15 -7 0 -12 7 -12 16 0 8
5 12 10 9 6 -3 10 0 10 9 0 8 4 16 10 18 6 2 6 14 1 33 -9 28 -9 29 -10 5 -1
-14 -6 -32 -12 -40 -8 -12 -9 -11 -5 5 2 11 7 46 11 78 3 31 10 57 14 57 4 0
5 -17 3 -37 l-3 -38 19 24 20 25 -5 -28 c-7 -35 16 -32 34 4 11 22 8 26 -42
57 -33 21 -59 46 -69 68 -9 19 -21 35 -26 35 -6 0 -9 3 -8 8 1 4 -4 18 -11 30
-7 13 -10 26 -7 30 3 3 6 -1 7 -9 0 -8 4 -6 9 6 8 18 9 17 9 -7 1 -34 11 -59
21 -53 4 2 24 -5 46 -15 21 -11 44 -20 51 -20 6 0 15 -5 19 -12 4 -7 3 -8 -4
-4 -7 4 -12 3 -12 -3 0 -22 24 -22 41 0 10 13 16 25 14 28 -2 2 2 10 10 18 8
8 15 23 15 33 0 18 -5 17 -51 -11 -28 -16 -53 -28 -55 -26 -2 2 9 20 23 41 44
62 33 157 -29 239 -11 15 -16 9 -35 -60z m46 -61 c11 11 11 9 1 -11 -6 -12 -9
-33 -6 -44 3 -12 2 -33 -2 -47 -5 -21 -8 -17 -13 25 -4 28 -10 64 -14 80 -6
29 -6 29 7 7 11 -18 16 -20 27 -10z"/>
<path d="M620 2048 c-31 -79 -34 -87 -20 -65 21 34 60 127 52 127 -4 0 -18
-28 -32 -62z"/>
<path d="M2135 2090 c3 -14 8 -40 12 -57 3 -18 10 -33 15 -33 10 0 5 20 -19
80 -7 19 -11 24 -8 10z"/>
<path d="M841 2048 c-18 -49 -22 -68 -14 -68 5 0 13 20 19 45 11 48 9 59 -5
23z"/>
<path d="M2157 1948 c3 -24 9 -47 14 -52 5 -6 9 -23 9 -38 0 -27 25 -88 36
-88 2 0 0 9 -6 21 -6 11 -10 37 -9 57 2 20 -2 46 -8 57 -6 11 -14 35 -18 53
-10 47 -24 39 -18 -10z"/>
<path d="M816 1948 c-3 -13 -6 -33 -6 -46 0 -13 -4 -20 -10 -17 -5 3 -11 0
-12 -7 0 -7 -2 -17 -2 -23 -1 -5 -5 -16 -9 -22 -6 -9 -3 -11 9 -6 13 5 15 2 9
-18 -3 -13 -9 -32 -12 -43 -3 -11 -1 -16 6 -12 5 4 13 23 16 44 3 20 10 51 16
69 14 46 20 103 10 103 -5 0 -11 -10 -15 -22z"/>
<path d="M1466 1931 c-8 -13 18 -61 33 -61 12 0 35 59 27 68 -4 4 -12 -1 -18
-11 -9 -17 -11 -17 -22 -1 -10 12 -15 14 -20 5z"/>
<path d="M1192 1888 c2 -6 10 -14 18 -16 8 -3 10 0 5 9 -5 8 1 6 13 -5 24 -21
45 -103 32 -126 -8 -12 -9 -12 -10 5 0 15 -10 10 -49 -29 l-49 -48 -13 -98
c-13 -108 -5 -176 32 -276 41 -110 163 -231 251 -249 18 -4 48 -14 66 -22 26
-12 32 -21 32 -45 0 -27 -3 -30 -25 -26 -14 3 -25 1 -25 -5 0 -5 14 -7 30 -5
17 3 33 2 35 -2 7 -11 196 -3 207 8 7 7 -3 9 -30 5 -22 -3 -64 1 -94 8 -64 16
-65 16 -78 18 -5 0 -10 6 -10 12 0 6 -24 37 -52 70 -29 32 -59 73 -68 91 -11
24 -22 32 -43 33 -16 0 -32 7 -37 15 -17 26 -11 33 15 16 13 -9 27 -16 30 -16
10 0 5 31 -11 61 -8 17 -17 46 -20 66 -2 20 -11 44 -19 53 -18 20 -20 44 -3
34 8 -5 9 -2 4 12 -5 10 -9 25 -9 32 0 6 -3 12 -7 12 -3 0 -6 12 -7 28 -2 33
-8 66 -22 112 -14 45 -14 93 0 140 14 47 6 84 -26 116 -25 25 -70 33 -63 12z
m60 -253 c-3 -66 -1 -95 7 -95 6 0 11 -9 11 -20 0 -11 -4 -20 -10 -20 -15 0
-12 -60 5 -111 9 -24 33 -64 55 -88 50 -55 54 -82 8 -49 -18 13 -36 23 -40 23
-3 0 -10 4 -15 9 -5 5 -2 6 6 1 9 -5 12 -3 9 6 -3 8 -10 13 -15 12 -5 -1 -9 6
-10 15 -1 9 -9 37 -19 62 -14 35 -18 74 -19 180 0 74 3 143 7 153 17 39 24 11
20 -78z m-51 -16 c-14 -101 -14 -122 -1 -114 6 4 8 -12 5 -42 -4 -38 -3 -43 5
-23 8 21 9 20 5 -11 -4 -24 2 -58 16 -95 18 -49 37 -74 117 -151 52 -51 92
-93 88 -93 -4 0 -25 9 -48 21 -60 31 -124 102 -162 183 -45 93 -60 171 -53
271 4 66 4 73 -5 40 -22 -88 5 -243 60 -352 28 -53 131 -146 182 -163 23 -8
43 -17 46 -22 10 -16 -29 -7 -82 19 -171 83 -268 336 -212 552 9 34 13 40 18
26 5 -15 8 -12 13 15 13 65 19 20 8 -61z"/>
<path d="M2728 1862 c-28 -31 -39 -60 -27 -68 7 -4 9 -24 6 -50 -2 -24 -3 -44
-2 -44 2 0 17 24 34 54 24 41 30 61 25 85 -8 39 -17 45 -36 23z"/>
<path d="M1450 1857 c0 -7 11 -28 23 -47 28 -42 41 -86 27 -95 -5 -3 -10 2
-10 12 -1 34 -26 55 -62 50 -33 -4 -33 -4 -3 -5 25 -2 33 -9 48 -45 21 -52 22
-68 2 -61 -21 8 -19 -18 4 -47 10 -13 21 -31 24 -39 4 -11 6 -10 7 5 0 11 7
29 15 39 20 26 19 50 0 42 -20 -7 -19 14 2 59 16 34 11 63 -7 35 -8 -12 -10
-10 -10 9 0 13 10 39 21 58 23 37 18 57 -7 31 -13 -13 -17 -24 -23 -57 -1 -3
-7 4 -15 14 -8 11 -12 24 -9 31 2 6 -3 14 -11 17 -9 4 -16 1 -16 -6z"/>
<path d="M2813 1833 c-23 -15 -33 -41 -12 -27 8 4 9 -1 4 -16 -5 -17 -4 -21 6
-15 9 6 11 3 6 -9 -4 -9 -3 -15 2 -12 5 3 12 -1 15 -10 3 -8 2 -13 -2 -11 -4
3 -16 -4 -27 -15 -17 -16 -17 -18 -2 -13 10 5 17 2 17 -5 0 -7 7 -10 15 -6 8
3 15 2 15 -2 0 -13 -41 -43 -50 -37 -6 4 -10 0 -10 -7 0 -8 -3 -9 -8 -3 -4 6
-17 12 -30 12 -29 2 -49 18 -66 52 -20 39 -28 91 -14 91 6 0 3 9 -7 20 -10 11
-22 20 -27 20 -23 0 2 -101 33 -136 24 -26 24 -31 -2 -45 -14 -7 -24 -8 -28
-1 -7 12 -61 4 -61 -9 0 -5 9 -9 21 -9 29 0 14 -19 -30 -38 -42 -18 -50 -20
-112 -28 -30 -4 -49 -2 -53 5 -4 6 -12 11 -18 11 -7 0 -7 -4 1 -13 6 -8 8 -17
4 -20 -3 -4 12 -7 34 -7 39 0 39 -1 35 -31 -5 -37 -27 -48 -50 -25 -9 9 -11
16 -5 16 6 0 14 8 17 17 6 15 5 15 -13 -1 -11 -10 -25 -15 -30 -11 -6 3 -11 2
-11 -3 0 -12 34 -42 48 -42 14 0 15 -19 3 -38 -11 -18 -57 3 -64 29 -10 38
-35 14 -28 -25 1 -5 -5 -3 -14 4 -13 11 -18 11 -28 0 -9 -10 -9 -11 1 -6 7 4
12 2 12 -6 0 -17 -9 -28 -40 -53 -14 -11 -20 -14 -14 -7 9 10 8 32 -2 85 -16
85 -17 86 -4 67 8 -12 10 -10 10 10 0 14 9 45 20 69 24 51 25 63 5 37 -8 -11
-15 -15 -15 -9 0 14 25 34 33 27 3 -4 13 -4 22 0 13 4 14 10 5 26 -42 78 -114
-90 -109 -253 2 -62 5 -70 26 -80 18 -8 27 -7 43 8 18 17 20 17 14 2 -3 -9 -4
-17 0 -17 3 0 10 18 16 40 11 39 23 50 35 30 3 -5 24 -10 45 -10 22 0 60 -10
85 -22 43 -21 47 -21 87 -7 30 11 44 23 48 40 4 17 14 25 32 27 31 4 51 24 46
47 -2 12 -8 10 -32 -10 -16 -14 -35 -25 -41 -25 -18 0 -65 39 -65 55 0 16 64
25 102 14 25 -7 28 -5 34 27 3 19 4 38 0 41 -3 4 -6 -1 -6 -11 0 -9 -4 -15 -9
-12 -5 4 -11 1 -13 -6 -3 -7 -15 -13 -29 -13 -54 -4 -109 -18 -122 -34 -21
-23 -27 -59 -12 -65 8 -3 11 2 8 15 -3 12 1 21 11 25 23 9 34 -4 16 -17 -12
-9 -10 -10 7 -6 24 5 63 -25 63 -48 0 -23 -39 -29 -61 -9 -21 19 -24 13 -9
-17 16 -29 -6 -24 -38 8 -15 15 -30 27 -34 25 -12 -3 -10 3 15 61 28 62 73
104 123 113 20 4 56 18 80 31 40 23 45 23 73 9 39 -20 72 -20 116 1 39 19 45
32 15 40 -25 7 -25 15 1 39 11 10 25 27 31 38 10 18 7 18 -35 14 -31 -4 -44
-2 -42 6 9 31 14 76 7 75 -4 0 -17 -7 -29 -16z"/>
<path d="M235 1819 c-16 -26 6 -59 58 -85 l52 -26 -49 50 c-26 28 -45 55 -42
61 4 6 3 11 -3 11 -5 0 -13 -5 -16 -11z"/>
<path d="M2108 1808 c-3 -16 2 -34 14 -49 l19 -24 -7 30 c-4 17 -10 39 -14 49
-6 18 -7 17 -12 -6z"/>
<path d="M1820 1767 c0 -13 48 -46 78 -52 9 -2 26 -6 37 -10 11 -4 -3 7 -32
24 -28 17 -54 35 -58 41 -9 14 -25 12 -25 -3z"/>
<path d="M1385 1700 c-16 -7 -13 -9 18 -9 20 -1 37 4 37 9 0 12 -27 12 -55 0z"/>
<path d="M2416 1671 c5 -5 34 -11 64 -14 l55 -6 -45 14 c-51 17 -89 20 -74 6z"/>
<path d="M1028 1627 c-15 -12 -38 -30 -51 -39 -17 -12 -24 -24 -20 -37 5 -19
-10 -51 -54 -119 -13 -19 -23 -40 -22 -46 0 -7 3 -6 6 2 2 6 8 10 12 7 5 -2
28 25 52 60 41 59 69 79 83 56 6 -9 -14 -67 -39 -113 -8 -14 -15 -40 -15 -56
0 -33 -44 -79 -99 -103 -38 -17 -41 -31 -3 -24 24 6 25 5 7 -6 -10 -7 -33 -16
-50 -20 l-30 -7 32 -1 c26 -1 43 9 80 45 l48 46 5 -59 5 -58 12 84 c13 89 66
221 89 221 7 0 15 -12 17 -27 l4 -28 2 27 c0 18 -6 31 -19 38 -27 14 -25 44 3
63 18 12 20 18 10 28 -19 19 -16 47 7 61 28 18 25 25 -12 26 -20 0 -43 -8 -60
-21z"/>
<path d="M1380 1620 c0 -5 16 -10 36 -10 21 0 33 4 29 10 -3 6 -19 10 -36 10
-16 0 -29 -4 -29 -10z"/>
<path d="M1464 1548 c3 -17 13 -39 21 -48 8 -9 16 -27 16 -41 1 -21 2 -20 8 6
4 17 15 47 26 67 10 21 16 41 12 44 -11 12 -25 -6 -32 -43 l-7 -37 -18 42
c-23 50 -35 55 -26 10z"/>
<path d="M1467 1464 c-8 -9 21 -64 33 -64 6 0 11 -12 11 -27 2 -27 2 -27 6 -3
2 14 9 35 14 46 6 12 9 30 7 40 -5 21 -5 21 -24 -33 -5 -15 -9 -12 -20 15 -15
34 -17 36 -27 26z"/>
<path d="M1937 1415 c-11 -7 -25 -11 -33 -8 -10 4 -14 -3 -13 -23 1 -24 2 -25
6 -7 4 20 7 21 25 12 23 -12 23 -12 32 19 8 26 7 26 -17 7z"/>
<path d="M2125 1372 c3 -31 8 -58 11 -61 4 -3 4 4 1 17 -3 12 -2 22 3 22 4 0
7 17 7 38 0 26 -4 39 -13 39 -10 0 -12 -14 -9 -55z"/>
<path d="M1055 1364 c0 -26 5 -44 11 -44 6 0 14 -14 18 -31 4 -19 13 -33 26
-36 11 -3 17 -10 14 -15 -4 -6 2 -6 13 1 11 6 23 7 27 3 4 -3 4 1 1 9 -4 11
-14 14 -30 11 -29 -5 -44 20 -26 42 10 12 8 15 -11 18 -17 2 -23 10 -23 27 0
13 6 26 13 29 6 2 12 -3 12 -12 0 -9 5 -16 10 -16 6 0 10 12 10 26 0 21 -3 24
-20 19 -12 -4 -26 -2 -33 3 -9 8 -12 -1 -12 -34z"/>
<path d="M841 1370 c-5 -16 -13 -30 -16 -30 -3 0 -3 5 1 11 4 8 0 7 -15 -1
-29 -15 -18 -30 22 -30 24 0 28 3 17 10 -13 8 -13 10 2 10 22 0 32 18 19 34
-6 7 -8 16 -4 19 3 4 2 7 -4 7 -6 0 -16 -13 -22 -30z"/>
<path d="M1526 1348 c-6 -22 -7 -23 -21 -4 -8 11 -18 17 -21 13 -4 -3 5 -20
20 -37 30 -37 35 -62 9 -53 -13 4 -11 -2 8 -23 31 -34 42 -61 28 -66 -6 -2 8
-16 31 -30 37 -25 39 -25 25 -5 -8 12 -15 29 -15 39 0 10 -6 17 -12 16 -9 -2
-13 12 -12 45 0 26 -3 47 -8 47 -4 0 -8 -8 -9 -17 0 -14 -2 -13 -9 5 -6 13 -6
32 0 48 12 31 13 44 1 44 -5 0 -12 -10 -15 -22z"/>
<path d="M2150 1333 c0 -6 5 -15 10 -18 14 -9 12 -37 -2 -33 -7 3 -18 0 -24
-6 -6 -6 -21 -18 -33 -26 -24 -17 -28 -35 -5 -26 8 3 13 2 9 -3 -6 -10 21 -41
36 -41 6 0 6 7 -1 19 -12 24 -13 54 -1 47 5 -3 11 1 15 9 10 26 76 16 76 -12
0 -12 -8 -14 -36 -10 -20 3 -34 3 -30 0 16 -16 122 -20 155 -6 22 9 38 10 44
4 6 -6 23 -7 38 -4 18 3 29 1 29 -6 0 -6 -4 -11 -9 -11 -5 0 -11 -8 -14 -18
-2 -12 -17 -22 -36 -25 -18 -4 -38 -13 -45 -20 -17 -16 -112 -22 -121 -7 -4 6
5 10 22 10 22 1 25 3 12 10 -20 12 -59 2 -59 -15 0 -19 24 -25 106 -25 107 0
146 18 168 80 20 55 12 84 -26 96 -13 4 -29 15 -36 25 -16 23 -65 25 -86 3 -9
-8 -16 -19 -16 -23 0 -5 -11 -7 -25 -6 -14 2 -23 -1 -19 -6 3 -5 -6 -9 -20 -9
-17 0 -30 9 -40 28 -8 15 -15 23 -16 17 0 -5 -5 -3 -10 5 -6 9 -10 10 -10 3z
m217 -19 c5 -15 -25 -26 -50 -18 -20 6 -20 7 -2 21 22 15 46 14 52 -3z m59
-39 c14 -13 14 -16 0 -21 -9 -3 -23 -3 -32 0 -8 3 -12 2 -9 -4 3 -6 -1 -10
-10 -10 -21 0 -31 30 -14 41 21 13 49 11 65 -6z m-91 -5 c7 -11 -54 -39 -72
-32 -7 2 -13 10 -13 17 0 7 6 16 13 18 22 9 66 7 72 -3z"/>
<path d="M1417 1313 c-11 -10 -8 -33 3 -33 6 0 10 6 10 14 0 8 10 17 23 19 20
4 20 4 -4 6 -14 0 -29 -2 -32 -6z"/>
<path d="M1455 1220 c-4 -6 -11 -8 -16 -5 -5 4 -9 -1 -9 -9 0 -9 5 -16 10 -16
6 0 10 4 10 10 0 5 15 14 33 19 31 9 31 9 5 10 -15 1 -30 -4 -33 -9z"/>
<path d="M2183 1203 c-32 -12 -7 -20 57 -18 39 1 73 -2 75 -6 3 -4 16 -2 29 4
13 7 22 15 19 20 -3 4 -10 4 -16 -1 -14 -11 -122 -10 -133 1 -8 8 -13 8 -31 0z"/>
<path d="M2490 1193 l-35 -17 28 -4 c29 -4 37 -26 12 -36 -8 -3 -15 -14 -15
-24 0 -43 -138 -82 -230 -64 -30 6 -65 13 -78 17 -17 6 -21 4 -17 -7 3 -7 38
-24 78 -36 40 -13 86 -35 101 -49 36 -33 73 -115 88 -198 7 -36 16 -65 19 -65
4 0 5 -9 2 -20 -3 -11 0 -26 6 -33 6 -8 9 -16 6 -19 -6 -6 20 -136 28 -145 3
-3 16 3 29 12 l23 17 -27 -5 c-30 -5 -35 2 -16 21 9 9 9 12 -1 12 -7 0 -10 4
-6 10 3 5 0 19 -7 31 -10 16 -10 23 -2 26 9 3 8 12 -2 33 -8 15 -16 50 -18 77
-4 49 -14 100 -24 117 -3 5 -6 22 -7 37 -2 15 -14 42 -28 60 l-26 33 22 19
c15 12 23 14 26 6 2 -6 -3 -16 -10 -21 -11 -8 -10 -9 3 -5 9 3 19 0 22 -8 3
-8 13 -11 27 -8 14 4 20 2 15 -5 -3 -5 4 -23 17 -39 13 -15 52 -84 86 -152 75
-153 121 -216 182 -255 l26 -17 37 78 c21 43 49 93 63 111 14 18 23 34 22 36
-2 1 -24 11 -47 21 -49 21 -154 125 -228 224 -26 34 -69 79 -96 100 l-49 36
29 25 c33 28 47 76 25 84 -17 7 -11 9 -53 -11z m46 -179 c10 -20 20 -31 24
-24 4 6 31 -23 63 -69 68 -94 126 -149 201 -191 55 -31 55 -32 40 -56 -9 -13
-20 -21 -25 -19 -10 7 -31 -30 -22 -39 3 -3 1 -6 -5 -6 -6 0 -21 -19 -33 -41
-14 -29 -24 -38 -31 -31 -12 12 3 59 34 104 22 31 23 45 4 29 -8 -7 -24 -32
-35 -57 -21 -44 -41 -58 -41 -29 0 8 3 15 8 15 4 0 12 11 19 25 9 21 9 25 -4
25 -26 0 -79 69 -182 237 -18 28 -38 54 -46 57 -8 3 -15 12 -15 21 0 9 -6 15
-12 14 -35 -4 -45 2 -45 29 0 24 4 28 22 24 13 -2 26 1 29 7 13 21 35 11 52
-25z"/>
<path d="M2710 709 c31 -31 49 -42 58 -36 9 7 2 15 -25 29 -21 11 -47 27 -58
36 -11 8 0 -5 25 -29z"/>
<path d="M1125 1179 c-4 -12 -2 -26 3 -31 13 -13 42 -3 42 13 0 6 -6 9 -14 6
-10 -4 -12 0 -9 14 7 26 -14 24 -22 -2z"/>
<path d="M1175 1191 c-3 -6 1 -11 9 -11 19 0 20 -11 4 -29 -11 -11 -10 -13 2
-9 18 5 20 50 3 55 -6 2 -14 -1 -18 -6z"/>
<path d="M2098 1163 c-23 -26 -38 -59 -37 -80 0 -10 8 -1 18 22 10 22 25 46
33 53 13 10 16 9 21 -7 3 -11 -1 -25 -8 -31 -14 -11 -9 -50 6 -50 5 0 9 10 9
23 0 12 7 33 16 45 14 21 14 23 -11 32 -33 13 -29 13 -47 -7z"/>
<path d="M815 1157 c-75 -15 -86 -47 -17 -47 36 -1 36 -1 13 -14 -20 -11 -21
-14 -6 -20 9 -3 22 -3 27 1 7 3 8 1 4 -5 -4 -7 -2 -12 3 -12 10 0 13 7 10 26
0 4 5 10 11 14 23 14 0 31 -35 24 -19 -3 -35 -1 -39 5 -5 7 5 12 26 13 18 0
44 2 58 3 14 1 40 3 59 3 19 1 32 4 30 6 -12 10 -100 12 -144 3z"/>
<path d="M1629 1140 c-3 -16 -12 -26 -29 -30 -14 -3 -20 -9 -15 -12 15 -9 99
-6 84 2 -7 5 -18 21 -24 37 l-12 28 -4 -25z"/>
<path d="M632 1143 c-16 -3 -22 -9 -18 -20 3 -8 6 -16 6 -18 0 -2 14 3 30 11
17 9 30 20 30 25 0 9 -8 10 -48 2z"/>
<path d="M2455 1141 c5 -10 -3 -19 -40 -46 -11 -8 -15 -15 -9 -15 18 0 64 40
64 56 0 8 -5 14 -11 14 -5 0 -8 -4 -4 -9z"/>
<path d="M1708 1132 c-12 -5 -15 -11 -8 -21 6 -10 3 -19 -8 -27 -25 -18 -9
-27 23 -12 22 10 29 10 33 0 3 -9 9 -9 23 -1 11 6 30 12 41 14 25 5 34 13 24
22 -4 4 -15 2 -25 -4 -11 -7 -23 -8 -34 -1 -13 7 -17 5 -17 -6 0 -10 -6 -13
-17 -9 -25 9 -34 25 -21 40 12 14 11 15 -14 5z"/>
<path d="M1246 1121 c-4 -5 -24 -8 -45 -7 -30 2 -38 0 -34 -11 4 -10 14 -12
37 -7 17 4 39 8 49 8 18 0 23 11 8 21 -5 3 -12 1 -15 -4z"/>
<path d="M1224 1075 c-4 -10 -1 -21 7 -26 20 -12 24 -11 50 10 l24 20 -23 -6
c-12 -3 -29 0 -37 7 -12 10 -16 9 -21 -5z"/>
<path d="M947 1043 c3 -7 8 -13 12 -13 3 0 12 -14 20 -31 12 -27 15 -29 30
-15 15 14 18 13 31 -7 8 -12 16 -26 16 -32 1 -5 2 -14 3 -20 1 -5 5 -4 10 3 7
11 9 11 14 -2 4 -9 2 -16 -4 -16 -6 0 -7 -5 -3 -11 4 -8 9 -7 15 2 6 11 12 10
27 -4 10 -9 23 -17 28 -17 5 0 -10 18 -33 40 -24 21 -43 42 -43 45 0 12 -44
54 -52 49 -10 -7 -38 14 -38 28 0 5 6 6 13 2 6 -4 9 -3 4 1 -12 14 -55 12 -50
-2z"/>
<path d="M1352 1030 c-11 -17 -10 -20 8 -20 14 0 18 -5 13 -17 -5 -12 -2 -15
10 -10 9 3 28 0 43 -8 23 -11 29 -11 40 0 8 7 14 18 14 24 0 14 -37 14 -45 1
-10 -16 -23 -12 -30 11 -4 12 -13 18 -20 15 -8 -3 -15 2 -17 10 -2 11 -6 10
-16 -6z"/>
<path d="M1287 1016 c-8 -19 1 -26 35 -26 27 0 27 1 11 20 -20 23 -39 26 -46
6z"/>
<path d="M629 983 c-4 -37 -2 -43 14 -43 11 0 15 4 11 12 -4 6 -10 25 -14 42
-6 30 -7 30 -11 -11z"/>
<path d="M1405 900 c3 -5 22 -10 41 -10 21 0 33 4 29 10 -3 6 -22 10 -41 10
-21 0 -33 -4 -29 -10z"/>
<path d="M627 863 c9 -23 20 -40 24 -37 10 5 1 26 -25 59 -14 17 -13 15 1 -22z"/>
<path d="M2014 871 c4 -5 1 -11 -5 -13 -16 -5 1 -38 21 -38 27 0 41 22 26 43
-13 17 -52 25 -42 8z"/>
<path d="M1165 850 c37 -41 145 -93 145 -69 0 8 -9 11 -26 8 -3 -1 -19 12 -35
27 -16 15 -29 24 -29 20 0 -4 -13 2 -29 13 -37 27 -49 27 -26 1z"/>
<path d="M1889 839 c-37 -40 -115 -195 -124 -248 -5 -31 -11 -41 -25 -41 -10
0 -21 -4 -25 -9 -3 -5 8 -9 24 -9 24 1 30 7 40 39 16 53 106 240 131 272 29
37 15 34 -21 -4z"/>
<path d="M1597 809 c-10 -6 -25 -8 -32 -5 -8 3 -17 1 -20 -4 -10 -16 48 -11
69 5 23 17 10 20 -17 4z"/>
<path d="M580 804 c0 -21 43 -132 76 -194 60 -115 126 -194 190 -231 33 -18
68 -42 79 -52 11 -10 34 -26 50 -34 l30 -15 -35 37 c-19 21 -76 68 -125 105
-88 65 -92 70 -152 181 -34 63 -68 130 -74 149 -12 35 -39 73 -39 54z"/>
<path d="M650 801 c0 -18 41 -104 47 -98 3 4 0 13 -7 22 -7 8 -9 15 -4 15 4 0
3 5 -4 12 -7 7 -12 20 -12 29 0 10 -4 21 -10 24 -5 3 -10 2 -10 -4z"/>
<path d="M1166 788 c20 -36 139 -128 221 -170 91 -46 187 -121 197 -153 9 -32
-2 -31 -37 3 -19 18 -56 41 -84 52 -50 19 -51 19 -119 -1 -38 -12 -87 -35
-108 -52 -22 -17 -36 -24 -31 -16 5 8 -1 6 -13 -5 -34 -30 -61 -96 -58 -144 4
-55 -27 -92 -76 -91 l-33 1 33 11 c35 11 56 35 66 77 4 18 2 16 -9 -7 -20 -44
-56 -66 -95 -58 -16 4 -30 13 -30 21 0 12 -19 19 -43 15 -15 -2 -48 20 -42 29
3 5 0 12 -6 16 -8 4 -9 3 -5 -4 10 -17 -7 -15 -30 4 -17 14 -17 15 -1 10 10
-3 15 -2 12 4 -3 5 -19 7 -35 3 -23 -4 -30 -2 -30 10 0 8 -7 18 -16 21 -13 5
-15 2 -11 -15 6 -21 4 -21 -61 -15 -45 4 -71 12 -80 23 -11 15 -12 15 -12 -5
0 -13 -6 -22 -15 -22 -8 0 -15 4 -15 9 0 10 -19 9 -35 -1 -17 -10 -96 15 -91
28 3 7 0 15 -7 18 -7 2 -3 5 8 5 17 1 17 3 5 11 -13 8 -13 10 1 10 11 0 24 21
39 62 25 68 37 178 19 178 -5 0 -7 -4 -4 -10 8 -13 -26 -13 -61 0 -21 8 -24
14 -16 22 15 15 15 28 2 28 -5 0 -10 -6 -10 -14 0 -8 -7 -16 -17 -18 -18 -3
-5 -11 72 -44 60 -26 12 -31 -54 -5 -28 10 -49 16 -46 12 4 -7 61 -33 98 -45
23 -7 22 -23 -3 -31 -22 -7 -63 3 -56 13 2 4 -6 8 -18 8 -25 2 -106 52 -106
65 0 5 8 9 18 9 13 0 14 2 3 9 -21 13 9 21 34 8 19 -9 19 -9 2 9 -14 16 -20
17 -35 6 -9 -7 -25 -15 -34 -18 -36 -13 -25 -32 40 -75 37 -23 84 -47 104 -53
20 -6 39 -14 42 -17 8 -8 -32 -89 -57 -117 l-21 -22 21 -21 c26 -27 90 -39
203 -38 152 1 185 -8 330 -86 56 -30 75 -35 132 -35 40 0 85 7 109 17 41 16
42 16 99 -15 61 -34 100 -41 100 -18 0 10 11 12 45 8 28 -3 50 0 60 8 25 21
17 35 -20 37 -26 2 -35 -1 -35 -13 0 -19 -36 -10 -66 17 -34 32 -51 22 -19
-11 28 -29 28 -30 7 -30 -26 0 -167 69 -199 98 -13 10 -23 27 -23 37 0 34 43
93 84 116 22 12 44 27 48 33 5 7 8 7 8 -2 0 -7 5 -10 10 -7 6 4 8 10 5 14 -5
10 43 21 89 21 38 0 144 -49 170 -79 18 -19 21 -20 37 -5 16 14 20 14 53 -1
49 -23 52 -32 25 -63 -22 -24 -21 -24 11 3 19 17 38 34 41 39 4 5 43 9 87 10
44 1 75 -2 69 -6 -8 -5 -6 -8 5 -8 10 0 33 -14 53 -31 19 -17 35 -27 35 -22 0
12 -40 48 -60 56 -13 5 -12 6 1 6 9 1 28 -11 43 -26 23 -23 26 -33 21 -61 -9
-47 -37 -103 -49 -99 -6 2 -24 -17 -40 -42 -36 -55 -46 -63 -63 -49 -10 8 -13
5 -13 -11 0 -39 41 -21 83 36 35 46 43 52 88 58 27 4 68 3 91 -1 61 -11 95 -6
148 22 48 25 149 54 187 54 29 0 103 23 103 31 0 4 -7 26 -15 49 -18 52 -19
61 -2 55 6 -3 23 5 37 16 l25 21 -25 -7 c-47 -12 -55 -10 -58 12 -2 14 -8 20
-18 16 -11 -4 -14 4 -15 33 0 22 -5 48 -10 59 -6 14 -8 -5 -5 -58 3 -56 10
-84 22 -98 9 -10 14 -19 9 -19 -4 0 -3 -6 2 -12 25 -32 22 -48 -9 -64 -31 -16
-34 -15 -53 21 -3 6 -7 5 -11 -2 -7 -15 -34 -17 -34 -3 0 6 -7 10 -15 10 -8 0
-15 -4 -15 -10 0 -5 7 -10 16 -10 32 0 7 -22 -46 -40 -30 -11 -59 -19 -63 -20
-20 0 16 150 57 240 11 25 21 50 22 55 0 6 11 32 22 58 12 27 24 74 27 105 l5
57 -16 -35 c-9 -19 -17 -43 -18 -55 -8 -59 -101 -207 -185 -292 -28 -29 -51
-55 -51 -58 0 -4 12 -5 28 -3 15 2 25 6 22 9 -3 3 12 25 32 47 21 23 49 59 62
81 43 68 45 54 4 -25 -22 -41 -37 -81 -35 -89 3 -7 -8 -28 -24 -46 -29 -32
-33 -42 -30 -66 2 -16 -43 -17 -70 -2 -11 5 -17 14 -14 20 12 18 -11 9 -29
-12 -13 -16 -20 -18 -26 -9 -5 9 -9 9 -14 1 -4 -6 -12 -11 -17 -11 -6 0 1 14
15 31 29 35 35 89 11 109 -8 7 -12 16 -9 21 3 5 -19 20 -48 34 -61 29 -125 32
-188 10 -47 -17 -94 -20 -86 -6 4 5 0 12 -6 15 -7 2 -2 4 11 3 13 -1 25 3 28
8 2 6 -9 12 -23 13 -18 1 -27 -4 -31 -18 -5 -18 -7 -18 -33 -5 -16 8 -31 19
-34 24 -6 9 55 108 126 205 78 105 81 112 26 55 -30 -30 -80 -92 -111 -137
-56 -79 -77 -98 -77 -67 0 9 -6 12 -15 9 -8 -4 -15 -1 -15 5 0 14 -80 87 -88
81 -4 -3 -6 -8 -5 -12 6 -16 -13 -7 -46 22 -18 17 -38 30 -43 30 -11 0 -102
72 -129 102 -9 10 -19 15 -22 11 -4 -3 -17 2 -29 13 -17 16 -20 16 -12 2z"/>
<path d="M1324 768 c-13 -20 22 -28 121 -26 68 1 106 6 120 15 18 13 8 14 -80
8 -62 -4 -110 -3 -127 4 -19 7 -29 7 -34 -1z"/>
<path d="M1916 762 c-2 -4 -7 -24 -11 -45 -8 -42 4 -48 35 -17 22 22 25 36 10
45 -6 4 -9 1 -8 -6 2 -6 -3 -14 -9 -16 -8 -3 -13 4 -13 15 0 11 6 23 13 25 9
4 9 6 0 6 -6 1 -14 -2 -17 -7z"/>
<path d="M2565 669 c4 -24 8 -50 11 -57 2 -7 -1 -10 -6 -7 -6 3 -10 -3 -10
-15 0 -17 4 -20 23 -15 12 3 17 3 11 -2 -16 -12 12 -73 33 -73 15 0 14 -2 -3
-15 -18 -14 -18 -14 10 -15 23 0 27 3 21 18 -25 59 -55 150 -55 168 0 11 -9
29 -20 39 -21 19 -21 19 -15 -26z"/>
<path d="M2242 660 c-19 -32 -13 -47 8 -20 11 14 20 28 20 33 0 14 -15 7 -28
-13z"/>
<path d="M845 627 c-10 -24 10 -46 27 -29 8 8 9 12 1 12 -6 0 -13 8 -16 18 -4
16 -4 16 -12 -1z"/>
<path d="M1938 596 c-16 -33 -16 -37 -3 -43 22 -8 27 0 23 43 l-3 37 -17 -37z"/>
<path d="M1272 550 c-19 -10 -41 -25 -51 -34 -10 -9 -22 -16 -27 -16 -17 0
-54 -31 -49 -41 4 -5 29 9 58 30 59 44 89 61 119 66 31 6 35 15 7 14 -13 0
-39 -9 -57 -19z"/>
<path d="M600 529 c10 -35 17 -45 26 -37 5 6 -22 68 -31 68 -2 0 0 -14 5 -31z"/>
<path d="M1850 530 c-6 -4 -22 -6 -34 -4 -20 4 -20 4 -1 -5 26 -12 75 -14 75
-2 0 13 -25 20 -40 11z"/>
<path d="M2152 510 c-10 -17 -10 -20 3 -20 8 0 19 9 25 20 8 15 8 20 -2 20 -7
0 -19 -9 -26 -20z"/>
<path d="M2651 461 c-7 -5 -11 -13 -8 -18 4 -5 -10 -17 -29 -26 -43 -21 -48
-21 -40 -2 5 13 2 13 -19 -1 -26 -17 -32 -38 -15 -49 5 -3 41 10 80 31 61 32
68 39 59 55 -11 22 -10 21 -28 10z"/>
<path d="M1108 440 c-9 -6 -24 -36 -33 -68 -9 -31 -19 -65 -22 -76 -3 -11 -1
-16 5 -12 5 3 15 27 22 53 6 27 21 63 32 81 21 35 21 36 -4 22z"/>
<path d="M1388 442 c7 -2 -6 -16 -30 -32 -50 -32 -88 -67 -88 -81 0 -5 12 4
28 21 15 16 52 45 84 63 54 33 55 34 25 34 -18 0 -26 -2 -19 -5z"/>
<path d="M1314 414 c-41 -27 -74 -62 -74 -79 1 -5 13 4 28 22 15 17 45 43 66
57 21 14 34 26 29 26 -6 0 -28 -12 -49 -26z"/>
<path d="M1605 372 c-31 -6 -41 -20 -26 -34 11 -10 13 -10 7 0 -5 8 1 12 18
12 19 0 26 -5 26 -20 0 -29 -41 -26 -78 5 -17 14 -36 25 -43 25 -7 0 2 -13 21
-29 60 -50 120 -48 120 4 0 28 -18 43 -45 37z"/>
<path d="M1435 288 c6 -16 85 -62 85 -50 0 5 14 7 30 4 26 -4 30 -1 29 19 0
13 -3 18 -6 12 -7 -19 -49 -16 -93 7 -46 23 -51 24 -45 8z"/>
<path d="M1611 249 c-33 -54 -44 -95 -31 -119 13 -24 33 -26 50 -5 18 22 30
18 30 -10 0 -32 29 -34 56 -4 l19 21 5 -24 c9 -38 42 -34 73 9 48 66 77 113
69 113 -13 0 -27 -15 -42 -44 -13 -26 -63 -66 -82 -66 -12 0 -9 35 3 47 6 6 9
17 7 25 -3 8 -12 0 -22 -20 -14 -27 -20 -31 -31 -22 -12 10 -13 8 -10 -9 3
-16 -1 -21 -16 -21 -23 0 -24 21 -3 66 20 42 13 55 -13 24 -10 -13 -28 -34
-40 -49 -12 -14 -25 -22 -30 -18 -4 5 0 13 10 18 21 12 22 39 1 39 -13 0 -12
6 6 36 12 19 20 38 17 41 -3 3 -15 -10 -26 -28z"/>
</g>
</svg>
